<svg height="512pt" viewBox="-24 0 512 512" width="512pt" xmlns="http://www.w3.org/2000/svg"><path d="m231.855469 512c-11.753907 0-22.019531-7.53125-25.539063-18.738281-.070312-.222657-.328125-.386719-.613281-.386719h-198.058594c-4.222656 0-7.644531-3.421875-7.644531-7.644531 0-4.222657 3.421875-7.644531 7.644531-7.644531h198.058594c7.007813 0 13.113281 4.457031 15.199219 11.09375 1.507812 4.804687 5.910156 8.03125 10.953125 8.03125s9.445312-3.226563 10.953125-8.03125c2.085937-6.636719 8.195312-11.09375 15.199218-11.09375h198.390626c4.21875 0 7.644531 3.421874 7.644531 7.644531 0 4.222656-3.425781 7.644531-7.644531 7.644531h-198.390626c-.285156 0-.539062.164062-.609374.386719-3.523438 11.207031-13.785157 18.738281-25.542969 18.738281zm0 0" fill="#ffae85"/><path d="m232.023438 475.285156c-4.222657 0-7.644532-3.421875-7.644532-7.644531v-233.527344c0-4.222656 3.421875-7.644531 7.644532-7.644531 4.21875 0 7.644531 3.421875 7.644531 7.644531v233.527344c0 4.222656-3.425781 7.644531-7.644531 7.644531zm0 0" fill="#bddff4"/><g fill="#e4f4ff"><path d="m272.464844 464.574219c-2.75 0-5.410156-1.488281-6.777344-4.097657-1.960938-3.738281-.519531-8.359374 3.21875-10.320312l33.109375-17.363281c3.738281-1.960938 8.359375-.519531 10.320313 3.21875 1.960937 3.738281.519531 8.359375-3.21875 10.320312l-33.105469 17.363281c-1.132813.59375-2.347657.878907-3.546875.878907zm0 0"/><path d="m261.953125 438.972656c-1.75 0-3.507813-.597656-4.945313-1.820312-3.21875-2.734375-3.609374-7.558594-.875-10.777344l26.410157-31.078125c2.734375-3.222656 7.558593-3.613281 10.777343-.875 3.21875 2.730469 3.609376 7.558594.875 10.773437l-26.414062 31.082032c-1.511719 1.78125-3.664062 2.695312-5.828125 2.695312zm0 0"/><path d="m192.140625 464.175781c-1.234375 0-2.480469-.300781-3.640625-.929687l-32.855469-17.832032c-3.710937-2.011718-5.085937-6.652343-3.074219-10.363281 2.015626-3.710937 6.652344-5.089843 10.367188-3.074219l32.855469 17.832032c3.710937 2.011718 5.085937 6.65625 3.074219 10.367187-1.386719 2.550781-4.015626 4-6.726563 4zm0 0"/><path d="m203.015625 438.722656c-2.203125 0-4.386719-.945312-5.902344-2.777344l-25.96875-31.449218c-2.6875-3.257813-2.230469-8.074219 1.027344-10.765625 3.253906-2.6875 8.074219-2.226563 10.761719 1.027343l25.972656 31.453126c2.6875 3.257812 2.226562 8.074218-1.027344 10.761718-1.425781 1.179688-3.148437 1.75-4.863281 1.75zm0 0"/></g><path d="m237.964844 234.113281h-11.898438c-3.515625 0-6.421875-2.738281-6.632812-6.25l-12-201.769531c-.84375-14.152344 10.410156-26.09375 24.589844-26.09375 14.179687 0 25.429687 11.941406 24.585937 26.097656l-12.011719 201.765625c-.210937 3.511719-3.117187 6.25-6.632812 6.25zm0 0" fill="#89b4c9"/><path d="m232.023438 0c-2.441407 0-4.792969.359375-7.015626 1.019531 10.679688 3.164063 18.273438 13.359375 17.578126 25.078125l-12.015626 201.765625c-.1875 3.148438-2.546874 5.671875-5.566406 6.160157.347656.054687.699219.089843 1.0625.089843h11.898438c3.515625 0 6.421875-2.738281 6.632812-6.25l12.015625-201.765625c.839844-14.15625-10.410156-26.097656-24.589843-26.097656zm0 0" fill="#71a2b5"/></svg>