<svg id="Capa_1" enable-background="new 0 0 512 512" height="512" viewBox="0 0 512 512" width="512" xmlns="http://www.w3.org/2000/svg"><g><path d="m130 392.58v-17.58c0-30.327-24.673-55-55-55h-20c-13.785 0-25-11.215-25-25s11.215-25 25-25h20c30.327 0 55-24.673 55-55v-25.978c56.349-7.373 100-55.694 100-114.022v-40c0-19.299-15.701-35-35-35h-10c-8.284 0-15 6.716-15 15s6.716 15 15 15h10c2.757 0 5 2.243 5 5v40c0 46.869-38.131 85-85 85s-85-38.131-85-85v-40c0-2.757 2.243-5 5-5h10c8.284 0 15-6.716 15-15s-6.716-15-15-15h-10c-19.299 0-35 15.701-35 35v40c0 58.328 43.651 106.649 100 114.022v25.978c0 13.785-11.215 25-25 25h-20c-30.327 0-55 24.673-55 55s24.673 55 55 55h20c13.785 0 25 11.215 25 25v17.58c-17.459 6.192-30 22.865-30 42.42 0 24.813 20.187 45 45 45s45-20.187 45-45c0-19.555-12.541-36.228-30-42.42zm-15 57.42c-8.271 0-15-6.729-15-15s6.729-15 15-15 15 6.729 15 15-6.729 15-15 15z"/><path d="m498.358 412.884-25.576-2.325c-45.886-4.171-84.481-34.429-99.599-77.606l13.312-37.272c6.84-19.151 3.929-40.51-7.785-57.133-11.715-16.624-30.85-26.548-51.187-26.548h-61.253c-12.442 0-24.645 4.28-34.358 12.053l-44.458 35.566h-30.454c-8.284 0-15 6.716-15 15v58.275c0 21.73 14.103 40.848 35.093 47.571 21.733 6.961 36.336 27.006 36.336 49.879v.69c0 5.061-.819 10.143-2.435 15.106-5.375 16.516-8.45 33.42-9.14 50.244-.167 4.081 1.337 8.055 4.166 11.001 2.829 2.947 6.737 4.613 10.822 4.613h280.158c8.284 0 15-6.716 15-15v-69.178c0-7.756-5.916-14.234-13.642-14.936zm-16.358 69.116h-248.715c1.294-8.905 3.379-17.797 6.235-26.573 2.593-7.967 3.908-16.173 3.908-24.392v-.69c0-35.968-22.981-67.494-57.185-78.449-8.519-2.729-14.243-10.366-14.243-19.001v-43.275h20.714c3.406 0 6.71-1.159 9.371-3.287l48.568-38.854c4.415-3.532 9.96-5.478 15.616-5.478h61.254c10.751 0 20.47 5.04 26.664 13.829 6.193 8.788 7.671 19.636 4.056 29.761l-15.806 44.257c-1.842 5.157-6.283 5.805-8.107 5.844-1.826.047-6.29-.417-8.351-5.491l-15.201-37.416c-3.118-7.676-11.868-11.374-19.543-8.251-7.675 3.117-11.369 11.867-8.251 19.542l15.201 37.416c6.112 15.046 20.59 24.539 36.787 24.194 6.36-.137 12.379-1.771 17.678-4.627 9.229 18.098 22.144 34.103 38.122 47.094 22.717 18.47 50.137 29.634 79.294 32.284l11.934 1.084z"/></g></svg>