<svg id="Capa_1" enable-background="new 0 0 512.006 512.006" height="512" viewBox="0 0 512.006 512.006" width="512" xmlns="http://www.w3.org/2000/svg"><g><path d="m440.006 455.004c-3.839 0-7.678-1.464-10.606-4.394l-13.25-13.25c-8.933-8.933-23.351-8.937-32.286 0-23.539 23.539-61.646 23.543-85.208.006-23.494-23.507-23.492-61.732-.006-85.219l64.32-64.32c17.547-17.548 17.547-46.1 0-63.647l-13.57-13.569c-5.858-5.858-5.858-15.355 0-21.213 5.857-5.857 15.355-5.858 21.213 0l13.57 13.57c29.244 29.245 29.244 76.829 0 106.074l-64.32 64.32c-11.793 11.793-11.791 30.989.003 42.79 11.827 11.813 30.964 11.815 42.784-.003 20.657-20.659 54.053-20.661 74.714 0l13.249 13.25c9.476 9.475 2.636 25.605-10.607 25.605z" fill="#d8e1fd"/><path d="m497.006 425.004h-57c-8.284 0-15 6.716-15 15v57c0 8.284 6.716 15 15 15h57c8.284 0 15-6.716 15-15v-57c0-8.284-6.716-15-15-15z" fill="#464141"/><path d="m511.966 60.864c-1.091-32.762-27.573-59.462-60.34-60.81-20.98-.85-40.94 8.73-53.39 25.64-17.24 23.43-35.78 46.51-56.68 70.55-3.82 4.39-4.75 10.59-2.4 15.91 11.886 26.792 33.377 48.877 61.59 61.09 5.239 2.264 11.345 1.363 15.72-2.38 22.855-19.596 47.669-39.698 71.37-58.25 15.79-12.36 24.81-31.71 24.13-51.75z" fill="#d8e1fd"/><path d="m487.836 112.614c-23.702 18.553-48.516 38.655-71.37 58.25-4.371 3.74-10.477 4.646-15.72 2.38-13.93-6.03-26.41-14.56-36.91-25.07l129.67-129.67c27.201 27.275 23.606 71.194-5.67 94.11z" fill="#c2d1f1"/><path d="m154.616 378.614-72 72c-2.93 2.93-6.77 4.39-10.61 4.39-13.31 0-20.025-16.179-10.61-25.61l72-72c5.86-5.85 15.36-5.85 21.22 0 5.85 5.86 5.85 15.36 0 21.22z" fill="#e9edfd"/><path d="m154.616 378.614-72 72c-5.824 5.825-15.339 5.882-21.22 0l93.22-93.22c5.85 5.86 5.85 15.36 0 21.22z" fill="#d8e1fd"/><path d="m25.298 437.421-16-8c-7.41-3.705-10.413-12.715-6.708-20.125s12.717-10.412 20.124-6.708l16 8c7.41 3.705 10.413 12.715 6.708 20.125-3.699 7.398-12.704 10.418-20.124 6.708z" fill="#de5ca7"/><path d="m96.018 511.008c-5.503 0-10.8-3.039-13.428-8.295l-8-16c-3.705-7.41-.702-16.419 6.708-20.125 7.411-3.705 16.42-.701 20.124 6.708l8 16c5.024 10.048-2.386 21.712-13.404 21.712z" fill="#db3996"/><path d="m64.004 399.008c-6.281 0-12.133-3.975-14.229-10.26l-8-24c-2.619-7.859 1.628-16.354 9.487-18.974 7.857-2.621 16.353 1.628 18.974 9.487l8 24c3.248 9.743-4.045 19.747-14.232 19.747z" fill="#de5ca7"/><path d="m152.008 471.008c-3.293 0-2.498-.024-28.745-8.773-7.859-2.62-12.106-11.115-9.487-18.974 2.62-7.858 11.116-12.106 18.974-9.487l24 8c7.859 2.62 12.106 11.115 9.487 18.974-2.096 6.285-7.949 10.26-14.229 10.26z" fill="#db3996"/><path d="m50.616 482.614-25 25c-2.93 2.93-6.77 4.39-10.61 4.39-13.31 0-20.025-16.179-10.61-25.61l25-25c5.86-5.85 15.36-5.85 21.22 0 5.85 5.86 5.85 15.36 0 21.22z" fill="#e58ec2"/><path d="m50.616 461.394c5.85 5.86 5.85 15.36 0 21.22l-25 25c-5.824 5.825-15.339 5.882-21.22 0z" fill="#de5ca7"/><path d="m368.006 144.004c-24-24-26.45-47.76-26.45-47.76-48.256 55.501-87.316 91.418-120.2 125.479-5.68 5.89-5.6 15.24.18 21.03l47.72 47.72c5.782 5.762 15.141 5.886 21.04.17 40.578-39.216 64.038-66.583 126.17-119.78 0 .001-24.46-2.859-48.46-26.859z" fill="#7bd8d3"/><path d="m416.466 170.864c-61.84 52.947-87.768 82.667-126.17 119.78-5.909 5.725-15.268 5.582-21.04-.17l-23.86-23.86 122.61-122.61c24 24 48.46 26.86 48.46 26.86z" fill="#6cbebe"/><path d="m221.376 221.704c-31.74 32.77-62.34 67.51-90.94 103.26-12.548 15.673-11.864 38.807 2.96 53.65 14.813 14.794 37.933 15.53 53.65 2.97-.049-.1 44.842-34.505 103.24-90.93-45.275-45.301-59.352-59.386-68.91-68.95z" fill="#d8e1fd"/><path d="m255.836 256.184 34.45 34.47c-60.457 58.415-103.378 90.647-103.24 90.93-15.717 12.56-38.836 11.824-53.65-2.97z" fill="#c2d1f1"/><path d="m502.846 30.384-23.12 23.12c-2.93 2.93-6.77 4.39-10.61 4.39-13.309 0-20.026-16.177-10.61-25.61l23.12-23.12c8.366 5.112 15.716 12.214 21.22 21.22z" fill="#595155"/><path d="m502.846 30.384-23.12 23.12c-5.822 5.823-15.336 5.884-21.22 0l35-35c3.56 3.57 6.7 7.56 9.34 11.88z" fill="#464141"/></g></svg>