<svg height="512" viewBox="0 0 58 58" width="512" xmlns="http://www.w3.org/2000/svg"><g id="038---Therapy" fill="none"><path id="Shape" d="m56.68 44.57-18.74 11.41c-1.0968305.667384-2.3560847 1.020252-3.64 1.02l-26.8.0000001v-22.0000001h4.3c2.0715011.0028959 4.0808416.7079276 5.7 2s3.6284989 1.9971041 5.7 2h5.23c1.7582968-.0025667 3.3881205.9206201 4.29 2.43l.09.15c.8396049 1.4277078.6138948 3.2415964-.55 4.42h2.35c.4319935.0002223.8610725-.0707278 1.27-.21l18.51-6.17c1.120338-.3678364 2.3505552.0181141 3.06.96v.01c.4649441.6171961.6465512 1.4025179.4997758 2.1611752s-.608183 1.4195768-1.2697758 1.8188248z" fill="#fdd7ad"/><path id="Shape" d="m33.27 43.9999954c-.1123578.7580882-.4666159 1.4595893-1.01 2.0000046h-6.54c-1.5768467-.0023226-3.1188029.464093-4.43 1.34l-.74.49c-.1610128.1128533-.3533896.1723152-.55.17-.4385565-.0033853-.8237305-.292132-.9499631-.7121422-.1262326-.4200103.0359373-.8732592.3999631-1.1178578l.73-.49c1.6391564-1.0970978 3.5675767-1.6818895 5.54-1.68z" fill="#f9c795"/><path id="Shape" d="m36.55 28.76s-.47.15-1.28.33c-3.06.7-10.98 1.98-16.57-1.9-7.06-4.91-7.7-16.18-7.7-16.18s10.79-3.33 17.85 1.57c5.58 3.89 7.15 11.76 7.56 14.87.11.82.14 1.31.14 1.31z" fill="#14a085"/><path id="Shape" d="m36.55 28.76s-.03-.49-.14-1.31l-7.06-4.91.067-3.472c.0105972-.5519411-.4280656-1.0080609-.98-1.019h-.02c-.5449491-.0000984-.989646.4361493-1 .981l-.041 2.137-2.589-1.8.066-3.467c.0050857-.2654004-.0955592-.521933-.2797578-.713072-.1841987-.1911389-.4368352-.3011986-.7022422-.305928-.2661373-.0086446-.5244566.0907198-.7161955.2754898s-.3005946.4392353-.3018045.7055102l-.043 2.128-4.85-3.37c-.4553602-.2988698-1.0658762-.1810471-1.3773201.2658072s-.2106811 1.0604167.2273201 1.3841928l4.859 3.369-1.99.784c-.4478427.1755839-.707216.6451429-.6174 1.1177166.0898159.4725737.5033679.8142387.9844.8132834.1256176-.0003535.2500714-.0240913.367-.07l3.229-1.273 2.588 1.8-1.988.784c-.4478427.1755839-.707216.6451429-.6174 1.1177166.0898159.4725737.5033679.8142387.9844.8132834.125934-.0004383.2507001-.024171.368-.07l3.223-1.274 7.07 4.908c.81-.18 1.28-.33 1.28-.33z" fill="#33907c"/><path id="Shape" d="m54.99 20.06c-4.42 6.38-13.48 8.09-16.86 8.52-.82.1-1.31.13-1.31.13s-.14-.46-.33-1.27c-.78-3.31-2.33-12.4 2.1-18.77 5.51-7.93 18.17-8.65 18.17-8.65s3.74 12.12-1.77 20.04z" fill="#26b99a"/><path id="Shape" d="m52.6 7.76c.3140152-.4530449.2021954-1.07476276-.25-1.39-.4530449-.31401517-1.0747628-.20219541-1.39.25l-3.92 5.64-.966-2.45c-.1309378-.33243566-.4292817-.56976437-.7826483-.6225867-.3533667-.05282233-.7080713.08688668-.9305001.36650001-.2224287.27961333-.2787895.65665109-.1478516.98908669l1.457 3.7-2.19 3.137-.964-2.448c-.2024124-.5141771-.7833229-.7669124-1.2975-.5645s-.7669124.7833229-.5645 1.2975l1.446 3.689v.006l-5.61 8.08c.19.81.33 1.27.33 1.27s.49-.03 1.31-.13l5.61-8.08h.011l3.961.076h.019c.5522847.0055228 1.0044771-.4377153 1.01-.99.0055228-.5522847-.4377153-1.0044771-.99-1.01l-2.634-.05 2.187-3.145 3.964.076h.02c.5522847.0055228 1.0044771-.4377153 1.01-.99.0055228-.5522847-.4377153-1.0044771-.99-1.01l-2.628-.057z" fill="#14a085"/><rect id="Rectangle-path" fill="#26b99a" height="25" rx="2" width="9" y="33"/></g></svg>