<svg id="Layer_1" height="512" viewBox="0 0 512 512" width="512" xmlns="http://www.w3.org/2000/svg" data-name="Layer 1"><path d="m496 35.713a4.6 4.6 0 0 0 -4.6 4.6v6.176a2.888 2.888 0 1 1 -5.775 0v-6.177a4.6 4.6 0 0 0 -4.6-4.6h-130.441a4.6 4.6 0 0 0 -4.6 4.6v6.176a2.887 2.887 0 1 1 -5.774 0v-6.176a4.6 4.6 0 0 0 -9.2 0v6.176a12.1 12.1 0 0 0 7.459 11.162l-.121 15.564h-11.648a5.962 5.962 0 0 0 -5.812 4.728l-.757 3.64h47.243l-.76-3.644a5.962 5.962 0 0 0 -5.812-4.724h-13.254l.121-15.543a12.1 12.1 0 0 0 7.516-11.183v-1.576h55.852v385.081h-33.462a4.6 4.6 0 0 0 -4.6 4.6v9.168a10.456 10.456 0 1 0 9.2 0v-4.569h68.876v4.569a10.455 10.455 0 1 0 9.2 0v-9.168a4.6 4.6 0 0 0 -4.6-4.6h-35.414v-385.081h56.188v1.576a12.088 12.088 0 0 0 24.175 0v-6.176a4.6 4.6 0 0 0 -4.6-4.599z"/><path d="m326.153 275.8h-2.928a12.968 12.968 0 0 1 0-25.935h2.626a22.193 22.193 0 0 0 22.167-22.167v-70.969h20.413v-41.586a189.5 189.5 0 0 1 -25.286-1.955 179.258 179.258 0 0 0 -24.07-1.876v45.417h19.742v70.964a12.982 12.982 0 0 1 -12.966 12.968h-2.626a22.167 22.167 0 1 0 0 44.333h2.928a12.982 12.982 0 0 1 12.967 12.967 100.939 100.939 0 0 1 -85.8 99.8l-25.147 3.67c-6.343-15.721-10.827-34.891-4.7-55.763 1.629-5.549 3.821-11.12 6.14-17.018 5.735-14.58 12.232-31.094 13.093-54.384a78.558 78.558 0 0 1 11.21-48.53 4.548 4.548 0 0 1 .58-.7l38.075-37.451a7.393 7.393 0 0 0 2.136-6.207l-.988-7.51a7.361 7.361 0 0 0 -8.9-6.224c-1.238.275-3 .8-4.875 1.358-5.089 1.516-10.854 3.239-15.031 2.836-4.231-.4-8.966-2.985-13.979-5.719-3.452-1.882-7.364-4.015-9.58-4.383-15.959-2.643-32.418 4.752-41.92 18.848-5.722 8.487-15.152 37.352-18.3 47.757-.019.065-.041.131-.063.195a6.258 6.258 0 0 0 5.708 8.342c17.365.434 24.414-16.187 24.707-16.9a4.6 4.6 0 0 1 8.514 3.471c-.373.921-9.141 21.92-31.336 22.62l-83.932 90.377c-20.409 25.213-28.683 48.285-25.295 70.531a4.6 4.6 0 0 1 -5.537 5.183c-17.4-3.859-29.639-11.346-36.369-22.25-4.194-6.8-6.254-14.933-6.171-24.317-3.18 9.908-3.605 19.186-1.252 27.721 4.674 16.956 19.287 28.015 30.722 34.307a42.776 42.776 0 0 0 20.564 5.279h102.606l-2.28-8.146h-22.874a4.6 4.6 0 0 1 -3.729-7.293c7.278-10.077 9.951-19.709 7.945-28.626-3.356-14.915-18.757-23.534-18.912-23.619a4.6 4.6 0 0 1 4.405-8.077c.779.423 19.146 10.6 23.464 29.6a36.053 36.053 0 0 1 .89 7.338l15.219-13.017q.107-.09.216-.174a12.788 12.788 0 0 1 19.228 4.644l22.851 47.37h22.643l-1.906-4.288-10.722-4.171a4.6 4.6 0 0 1 -2.433-2.2l-.741-1.455c-1.655-3.247-3.464-6.8-5.261-10.622l22.667-3.309a110.137 110.137 0 0 0 93.65-108.895 22.192 22.192 0 0 0 -22.167-22.16z"/><path d="m436.132 347.233a4.6 4.6 0 0 0 -4.6 4.6v58.518a4.6 4.6 0 0 0 9.2 0v-58.518a4.6 4.6 0 0 0 -4.6-4.6z"/><path d="m440.732 322.165a4.6 4.6 0 0 0 -9.2 0v8.822a4.6 4.6 0 1 0 9.2 0z"/><path d="m368.431 105.944v-15.163h-49.356v11.333a189.716 189.716 0 0 1 25.286 1.954 178.924 178.924 0 0 0 24.07 1.876z"/></svg>