<svg id="_x31__px" height="512" viewBox="0 0 24 24" width="512" xmlns="http://www.w3.org/2000/svg"><path d="m6.5 15c-.276 0-.5-.224-.5-.5v-7c0-.276.224-.5.5-.5s.5.224.5.5v7c0 .276-.224.5-.5.5z"/><path d="m7.5 8h-2c-.276 0-.5-.224-.5-.5v-4c0-.827.673-1.5 1.5-1.5s1.5.673 1.5 1.5v4c0 .276-.224.5-.5.5zm-1.5-1h1v-3.5c0-.276-.224-.5-.5-.5s-.5.224-.5.5z"/><path d="m17.5 14c-.276 0-.5-.224-.5-.5v-7c0-.276.224-.5.5-.5s.5.224.5.5v7c0 .276-.224.5-.5.5z"/><path d="m18.5 7h-2c-.276 0-.5-.224-.5-.5v-4c0-.827.673-1.5 1.5-1.5s1.5.673 1.5 1.5v4c0 .276-.224.5-.5.5zm-1.5-1h1v-3.5c0-.276-.224-.5-.5-.5s-.5.224-.5.5z"/><path d="m21.5 23h-19c-1.378 0-2.5-1.122-2.5-2.5v-8.021c0-.158.074-.306.201-.4s.289-.124.44-.079c3.644 1.073 7.051.128 10.348-.786 4.15-1.15 8.446-2.341 12.807.863.128.093.204.242.204.402v8.021c0 1.378-1.122 2.5-2.5 2.5zm-20.5-9.871v7.371c0 .827.673 1.5 1.5 1.5h19c.827 0 1.5-.673 1.5-1.5v-7.765c-3.899-2.732-7.711-1.676-11.744-.559-3.244.899-6.592 1.828-10.256.953z"/><path d="m1.5 21c-.441 0-.875-.117-1.253-.338-.238-.14-.318-.446-.179-.685.14-.238.445-.318.685-.179.222.13.487.202.747.202.827 0 1.5-.673 1.5-1.5s-.673-1.5-1.5-1.5c-.26 0-.525.072-.747.202-.24.138-.544.059-.685-.179-.139-.238-.06-.545.179-.685.378-.221.812-.338 1.253-.338 1.378 0 2.5 1.122 2.5 2.5s-1.122 2.5-2.5 2.5z"/><path d="m9.5 18c-.827 0-1.5-.673-1.5-1.5s.673-1.5 1.5-1.5 1.5.673 1.5 1.5-.673 1.5-1.5 1.5zm0-2c-.276 0-.5.224-.5.5s.224.5.5.5.5-.224.5-.5-.224-.5-.5-.5z"/><path d="m23 18c-1.103 0-2-.897-2-2s.897-2 2-2c.236 0 .457.04.676.122.258.097.389.385.292.644-.097.258-.387.387-.644.292-.611-.228-1.324.274-1.324.942s.712 1.169 1.324.942c.258-.096.547.033.644.292s-.034.547-.292.644c-.219.082-.44.122-.676.122z"/><path d="m16.5 20c-.827 0-1.5-.673-1.5-1.5s.673-1.5 1.5-1.5 1.5.673 1.5 1.5-.673 1.5-1.5 1.5zm0-2c-.276 0-.5.224-.5.5s.224.5.5.5.5-.224.5-.5-.224-.5-.5-.5z"/></svg>