<?xml version="1.0" encoding="iso-8859-1"?>
<!-- Generator: Adobe Illustrator 19.0.0, SVG Export Plug-In . SVG Version: 6.00 Build 0)  -->
<svg version="1.1" id="Layer_1" xmlns="http://www.w3.org/2000/svg" xmlns:xlink="http://www.w3.org/1999/xlink" x="0px" y="0px"
	 viewBox="0 0 101.639 101.639" style="enable-background:new 0 0 101.639 101.639;" xml:space="preserve">
<g>
	<path style="fill:#FFCC3B;" d="M39.331,35.796l0.05,43.629c0.008,5.425,3.702,9.968,8.704,11.296l0.429,8.508
		c0.071,1.401,1.262,2.479,2.665,2.407c0.654-0.03,1.238-0.309,1.668-0.74c0.487-0.489,0.776-1.176,0.737-1.922l-0.408-8.043
		c2.406-0.431,4.562-1.585,6.217-3.244c2.119-2.124,3.428-5.055,3.425-8.288l-0.051-40.896L39.331,35.796z"/>
	<path style="fill:#414042;" d="M68.574,39.518v-6.953l-5.521,0.101l0.512-20.962C63.557,5.229,58.303-0.009,51.833,0
		C45.362,0.008,40.125,5.258,40.13,11.733l-0.514,20.955l-6.551,0.032v6.791L68.574,39.518z"/>
</g>
<g>
</g>
<g>
</g>
<g>
</g>
<g>
</g>
<g>
</g>
<g>
</g>
<g>
</g>
<g>
</g>
<g>
</g>
<g>
</g>
<g>
</g>
<g>
</g>
<g>
</g>
<g>
</g>
<g>
</g>
</svg>
